<?xml version="1.0" standalone="no"?>
<!DOCTYPE svg PUBLIC "-//W3C//DTD SVG 20010904//EN"
 "http://www.w3.org/TR/2001/REC-SVG-20010904/DTD/svg10.dtd">
<svg version="1.0" xmlns="http://www.w3.org/2000/svg"
 width="130.000000pt" height="130.000000pt" viewBox="0 0 130.000000 130.000000"
 preserveAspectRatio="xMidYMid meet">
<metadata>
Created by potrace 1.16, written by Peter Selinger 2001-2019
</metadata>
<g transform="translate(0.000000,130.000000) scale(0.100000,-0.100000)"
fill="#000000" stroke="none">
<path d="M500 1274 c-224 -60 -408 -245 -465 -469 -19 -76 -19 -231 1 -315 53
-228 256 -427 482 -476 87 -18 211 -18 292 2 115 27 205 79 301 174 92 91 144
178 174 290 20 74 19 255 -1 333 -57 222 -241 403 -469 462 -75 19 -241 19
-315 -1z m327 -37 c165 -48 310 -170 383 -322 52 -109 64 -170 57 -301 -6
-133 -30 -206 -99 -311 -149 -222 -435 -324 -688 -244 -185 58 -338 208 -400
391 -31 89 -38 240 -16 334 81 343 430 550 763 453z"/>
<path d="M183 805 c-9 -25 7 -34 67 -37 l55 -3 3 -152 3 -153 24 0 24 0 3 153
3 152 60 5 c52 4 60 8 60 25 0 19 -8 20 -148 23 -127 2 -148 0 -154 -13z"/>
<path d="M640 632 l0 -190 -57 -4 c-49 -4 -60 -9 -90 -41 -38 -43 -39 -47 -14
-78 23 -29 79 -31 133 -5 60 29 63 44 63 285 0 197 -1 216 -17 219 -17 3 -18
-11 -18 -186z"/>
<path d="M840 640 l0 -182 89 4 c108 5 156 31 190 100 27 56 27 100 0 156 -34
69 -82 95 -190 100 l-89 4 0 -182z m189 104 c90 -53 77 -181 -23 -219 -23 -9
-58 -15 -77 -13 l-34 3 -3 114 c-1 63 0 121 3 129 7 19 93 10 134 -14z"/>
</g>
</svg>
